<svg width="31" height="31" viewBox="0 0 31 31" fill="none" xmlns="http://www.w3.org/2000/svg">
<g id="Group 164">
<g id="Group">
<g id="Group_2">
<g id="Group_3">
<path id="Vector" d="M15.4165 24.1274C15.7865 24.1274 16.0868 23.8271 16.0868 23.4571V22.7869H16.4889C16.9876 22.7869 17.4702 22.6756 17.926 22.4558C18.3576 22.2466 18.7437 21.9504 19.0735 21.575C19.4005 21.2037 19.6566 20.7747 19.8308 20.3029C20.0158 19.8149 20.1083 19.2975 20.1083 18.7653C20.1083 18.2331 20.0158 17.7157 19.8335 17.2291C19.6566 16.7545 19.4019 16.3269 19.0748 15.9555C18.745 15.5802 18.3589 15.2839 17.9273 15.0748C17.4702 14.8549 16.9876 14.7437 16.4889 14.7437H16.0868V9.38159H16.4889C16.7838 9.38159 17.0721 9.44864 17.3428 9.57865C17.6123 9.71004 17.8576 9.89636 18.0694 10.1377C18.2866 10.387 18.4582 10.6738 18.5775 10.9956C18.7075 11.3428 19.0909 11.5197 19.4408 11.3897C19.788 11.2597 19.9649 10.8736 19.8349 10.5264C19.658 10.0518 19.4033 9.62421 19.0762 9.25284C18.7464 8.87751 18.3603 8.58123 17.9287 8.37211C17.4702 8.15224 16.9876 8.04102 16.4889 8.04102H16.0868V7.37073C16.0868 7.00074 15.7865 6.70044 15.4165 6.70044C15.0465 6.70044 14.7462 7.00074 14.7462 7.37073V8.04102H14.3441C13.8454 8.04102 13.3628 8.1523 12.907 8.37211C12.4754 8.58123 12.0893 8.87751 11.7595 9.25284C11.4311 9.62553 11.1764 10.0531 11.0008 10.5264C10.8171 11.013 10.7246 11.5304 10.7246 12.0626C10.7246 12.5948 10.8171 13.1123 10.9994 13.5989C11.1763 14.0734 11.431 14.501 11.7582 14.8724C12.0879 15.2477 12.474 15.544 12.9056 15.7531C13.3628 15.973 13.8454 16.0842 14.3441 16.0842H14.7462V21.4463H14.3441C14.0492 21.4463 13.7609 21.3793 13.4902 21.2493C13.2207 21.1179 12.9754 20.9316 12.7636 20.6903C12.5464 20.4409 12.3748 20.1541 12.2555 19.8324C12.1255 19.4865 11.7435 19.3068 11.3922 19.4382C11.045 19.5682 10.8681 19.9543 10.9981 20.3016C11.175 20.7761 11.4297 21.2037 11.7568 21.5751C12.0866 21.9504 12.4727 22.2467 12.9043 22.4558C13.3628 22.6757 13.8454 22.7869 14.3441 22.7869H14.7462V23.4572C14.7463 23.8271 15.0465 24.1274 15.4165 24.1274ZM16.0868 16.0842H16.4889C16.7838 16.0842 17.0721 16.1513 17.3428 16.2813C17.6123 16.4127 17.8576 16.599 18.0694 16.8403C18.2866 17.0896 18.4582 17.3765 18.5789 17.6996C18.7035 18.0361 18.7679 18.394 18.7679 18.7653C18.7679 19.1366 18.7035 19.4945 18.5762 19.8324C18.4568 20.1528 18.2853 20.4409 18.0681 20.6903C17.8563 20.9316 17.611 21.1179 17.3415 21.2493C17.0708 21.3793 16.7838 21.4463 16.4889 21.4463H16.0868V16.0842ZM14.3441 14.7437C14.0492 14.7437 13.761 14.6767 13.4902 14.5466C13.2208 14.4153 12.9755 14.2289 12.7636 13.9876C12.5465 13.7383 12.3748 13.4515 12.2542 13.1283C12.1295 12.7918 12.0652 12.4339 12.0652 12.0626C12.0652 11.6913 12.1295 11.3334 12.2569 10.9956C12.3762 10.6752 12.5478 10.387 12.7649 10.1377C12.9768 9.89636 13.2221 9.71004 13.4915 9.57865C13.7623 9.44864 14.0492 9.38159 14.3441 9.38159H14.7463V14.7437H14.3441Z" fill="url(#paint0_linear_141_1942)"/>
<path id="Vector_2" d="M30.1623 14.7439C29.7923 14.7439 29.492 15.0442 29.492 15.4142C29.492 15.9008 29.4666 16.3821 29.4197 16.8526C29.3701 17.3258 29.299 17.7937 29.2052 18.2508C29.1127 18.7106 28.9961 19.161 28.8593 19.5994C28.7213 20.039 28.5631 20.472 28.3861 20.8916C28.2064 21.3126 28.0108 21.7228 27.7922 22.1235C27.5764 22.5217 27.3418 22.9091 27.0871 23.2845C26.8351 23.6585 26.563 24.0204 26.2788 24.3676C25.9905 24.7148 25.6889 25.0486 25.3686 25.3677C25.0482 25.6867 24.7158 25.9897 24.3685 26.2765C24.0213 26.5621 23.6607 26.8342 23.284 27.0862C22.91 27.3396 22.5212 27.5741 22.1245 27.7913C21.725 28.0071 21.3148 28.2055 20.8939 28.3825C20.4729 28.5594 20.04 28.719 19.6029 28.857C19.1619 28.9938 18.7114 29.1091 18.2517 29.2029C17.7945 29.2967 17.3267 29.3678 16.8562 29.4173C15.9084 29.5112 14.9191 29.5112 13.9767 29.4173C13.5035 29.3678 13.0356 29.2967 12.5785 29.2029C12.1187 29.1104 11.6683 28.9938 11.2299 28.857C10.7903 28.719 10.3573 28.5607 9.93769 28.3838C9.51674 28.2041 9.10522 28.0071 8.70708 27.7926C8.30894 27.5741 7.92016 27.3395 7.54483 27.0848C7.17083 26.8328 6.80888 26.5607 6.4617 26.2765C6.11453 25.9882 5.78073 25.6866 5.46164 25.3663C5.14255 25.0459 4.83961 24.7135 4.55276 24.3662C4.26993 24.0204 3.99646 23.6584 3.74442 23.2831C3.63584 23.1235 3.54334 22.952 3.4428 22.7871H7.37323C7.74321 22.7871 8.04351 22.4868 8.04351 22.1168C8.04351 21.7468 7.74321 21.4465 7.37323 21.4465H2.01111C1.64112 21.4465 1.34082 21.7468 1.34082 22.1168V27.4789C1.34082 27.8489 1.64112 28.1492 2.01111 28.1492C2.3811 28.1492 2.6814 27.8489 2.6814 27.4789V24.0981C2.9455 24.4855 3.22299 24.8609 3.52191 25.2201C3.8356 25.6008 4.16669 25.9668 4.51525 26.314C4.86381 26.6612 5.22839 26.9936 5.60912 27.3086C5.98986 27.6223 6.38529 27.9186 6.7955 28.1947C7.20702 28.4722 7.62929 28.7296 8.06764 28.9682C8.5033 29.2055 8.95371 29.4213 9.4162 29.617C9.87598 29.8113 10.3479 29.9843 10.8331 30.1358C11.3157 30.2846 11.8091 30.4119 12.3104 30.5151C12.8118 30.617 13.3225 30.6961 13.8426 30.7484C14.3601 30.802 14.8855 30.8301 15.4164 30.8301C15.9472 30.8301 16.4727 30.802 16.9942 30.7497C17.5116 30.6974 18.0224 30.6183 18.5237 30.5164C19.0251 30.4132 19.517 30.2859 20.0036 30.1371C20.4849 29.987 20.9581 29.8127 21.4192 29.617C21.8804 29.4212 22.3308 29.2055 22.7678 28.9682C23.2048 28.7309 23.6284 28.4735 24.0373 28.1974C24.4488 27.9199 24.8443 27.6236 25.225 27.3086C25.6057 26.9949 25.9717 26.6638 26.3189 26.3152C26.666 25.9667 26.9985 25.6021 27.3135 25.2214C27.6272 24.8406 27.9235 24.4452 28.1996 24.035C28.4771 23.6235 28.7345 23.1998 28.9704 22.7642C29.209 22.3285 29.4262 21.8767 29.6219 21.4142C29.8163 20.9544 29.9892 20.4825 30.1407 19.9973C30.2895 19.5147 30.4169 19.0214 30.5201 18.5201C30.6219 18.0187 30.701 17.5079 30.7533 16.9878C30.8043 16.4704 30.8324 15.9449 30.8324 15.4141C30.8326 15.0441 30.5323 14.7439 30.1623 14.7439Z" fill="url(#paint1_linear_141_1942)"/>
<path id="Vector_3" d="M1.4129 13.9757C1.46248 13.5025 1.53355 13.0346 1.62737 12.5775C1.71986 12.1177 1.83649 11.6673 1.97322 11.2289C2.10996 10.7893 2.26812 10.3563 2.44507 9.93669C2.62472 9.51574 2.82178 9.10422 3.03757 8.70608C3.25605 8.30794 3.49069 7.91917 3.74537 7.54384C3.99603 7.16983 4.2695 6.80788 4.55239 6.46071C4.84063 6.11353 5.14225 5.77974 5.46259 5.46065C5.783 5.14162 6.11541 4.83862 6.46265 4.55176C6.80983 4.26755 7.17178 3.99408 7.54717 3.7421C7.92118 3.48874 8.30995 3.25417 8.70671 3.037C9.10617 2.81983 9.51775 2.62278 9.93732 2.44451C10.3569 2.26624 10.7912 2.10801 11.2283 1.97128C11.6693 1.83454 12.1197 1.71924 12.5795 1.62542C13.0367 1.5316 13.5045 1.46053 13.975 1.41095C14.9228 1.31714 15.9121 1.31714 16.8545 1.41095C17.3277 1.46053 17.7955 1.5316 18.2527 1.62542C18.7125 1.71792 19.1629 1.83454 19.6012 1.97128C20.0409 2.10933 20.4739 2.26756 20.8935 2.44451C21.3144 2.62416 21.726 2.82122 22.1241 3.03568C22.5222 3.25417 22.911 3.4888 23.2863 3.74348C23.6603 3.99553 24.0223 4.26761 24.3695 4.55183C24.7166 4.84006 25.0504 5.14168 25.3695 5.46203C25.6886 5.78244 25.9916 6.11485 26.2784 6.46209C26.5639 6.80927 26.8361 7.16989 27.0881 7.5466C27.1967 7.70615 27.2878 7.87769 27.3897 8.04258H23.4593C23.0893 8.04126 22.789 8.3415 22.789 8.71148C22.789 9.08147 23.0893 9.38177 23.4593 9.38177H28.8214C29.1914 9.38177 29.4917 9.08147 29.4917 8.71148V3.34924C29.4917 2.97925 29.1914 2.67895 28.8214 2.67895C28.4514 2.67895 28.1511 2.97925 28.1511 3.34924V6.73009C27.887 6.3427 27.6095 5.96731 27.3106 5.60806C26.9969 5.22733 26.6658 4.86136 26.3172 4.51419C25.9687 4.16701 25.6041 3.83322 25.222 3.51815C24.8413 3.20446 24.4459 2.90818 24.0357 2.63208C23.6242 2.35459 23.2019 2.0972 22.7635 1.85861C22.3279 1.62133 21.8775 1.40549 21.415 1.20981C20.9552 1.01545 20.4833 0.842526 19.9981 0.691024C19.5155 0.542225 19.0221 0.414853 18.5208 0.311674C18.0194 0.209815 17.5087 0.130702 16.9886 0.0784213C15.9523 -0.0261404 14.8785 -0.0261404 13.8356 0.0784213C13.3182 0.130702 12.8074 0.209815 12.3061 0.311674C11.8087 0.414916 11.3155 0.540906 10.8302 0.691024C10.3489 0.841143 9.87574 1.01545 9.41457 1.20981C8.95341 1.40417 8.50299 1.62133 8.06602 1.85861C7.62898 2.09588 7.20671 2.35459 6.79651 2.63076C6.38631 2.90825 5.99087 3.20453 5.61014 3.51953C5.22808 3.83322 4.86344 4.16431 4.51494 4.51287C4.16638 4.86143 3.83529 5.22601 3.52029 5.60806C3.2066 5.9888 2.91032 6.38423 2.63421 6.79312C2.35672 7.20464 2.09802 7.62691 1.86075 8.06664C1.62347 8.5023 1.40762 8.95272 1.21057 9.41388C1.01753 9.87366 0.84328 10.3469 0.693098 10.8308C0.544299 11.3134 0.416927 11.8067 0.313748 12.3081C0.211888 12.8094 0.132776 13.3202 0.0804949 13.8403C0.0281512 14.3578 0 14.8832 0 15.4141C0 15.784 0.300301 16.0843 0.670288 16.0843C1.04028 16.0843 1.34058 15.784 1.34058 15.4141C1.34051 14.9274 1.36603 14.4462 1.4129 13.9757Z" fill="url(#paint2_linear_141_1942)"/>
</g>
</g>
</g>
</g>
<defs>
<linearGradient id="paint0_linear_141_1942" x1="15.4165" y1="6.70044" x2="15.4165" y2="24.1274" gradientUnits="userSpaceOnUse">
<stop stop-color="#07D8F4"/>
<stop offset="1" stop-color="#0976F0"/>
</linearGradient>
<linearGradient id="paint1_linear_141_1942" x1="16.0866" y1="14.7439" x2="16.0866" y2="30.8301" gradientUnits="userSpaceOnUse">
<stop stop-color="#07D8F4"/>
<stop offset="1" stop-color="#0976F0"/>
</linearGradient>
<linearGradient id="paint2_linear_141_1942" x1="14.7458" y1="0" x2="14.7458" y2="16.0843" gradientUnits="userSpaceOnUse">
<stop stop-color="#07D8F4"/>
<stop offset="1" stop-color="#0976F0"/>
</linearGradient>
</defs>
</svg>
