<svg width="34" height="31" viewBox="0 0 34 31" fill="none" xmlns="http://www.w3.org/2000/svg">
<g id="Group 163">
<g id="Group">
<path id="Vector" d="M6.78088 15.141H7.06427C7.31863 15.141 7.5435 14.9789 7.62381 14.7376L8.42793 12.3316L9.2251 14.7368C9.30522 14.9786 9.53015 15.141 9.78485 15.141H10.0603C10.312 15.141 10.5361 14.9811 10.618 14.743L11.8311 11.214C11.8938 11.0315 11.8655 10.8368 11.7534 10.6797C11.6413 10.5227 11.4663 10.4326 11.2734 10.4326C11.018 10.4326 10.7928 10.5957 10.7131 10.8384L9.88874 13.3395L9.14306 10.9579C9.04469 10.6437 8.75737 10.4326 8.42808 10.4326C8.09967 10.4326 7.81262 10.643 7.71372 10.9561L6.95759 13.3396L6.14382 10.8398C6.06459 10.5962 5.83926 10.4326 5.58157 10.4326C5.389 10.4326 5.21427 10.5224 5.10215 10.6789C4.99005 10.8355 4.96129 11.0298 5.02325 11.212L6.22252 14.741C6.30387 14.9803 6.52826 15.141 6.78088 15.141Z" fill="url(#paint0_linear_141_1923)"/>
<path id="Vector_2" d="M14.0346 15.141H14.3179C14.5723 15.141 14.7972 14.9789 14.8775 14.7376L15.6816 12.3316L16.4788 14.7368C16.5588 14.9786 16.7838 15.141 17.0386 15.141H17.3139C17.5658 15.141 17.7899 14.9811 17.8716 14.743L19.0847 11.214C19.1475 11.0316 19.1191 10.8369 19.0071 10.6798C18.895 10.5227 18.72 10.4326 18.527 10.4326C18.2716 10.4326 18.0464 10.5957 17.9668 10.8384L17.1424 13.3396L16.3967 10.9579C16.2983 10.6437 16.011 10.4326 15.6818 10.4326C15.3533 10.4326 15.0663 10.643 14.9674 10.9561L14.2112 13.3396L13.3975 10.8398C13.3182 10.5962 13.0929 10.4326 12.8352 10.4326C12.6427 10.4326 12.4679 10.5224 12.3558 10.6789C12.2437 10.8355 12.215 11.0298 12.2769 11.212L13.4762 14.741C13.5575 14.9803 13.7819 15.141 14.0346 15.141Z" fill="url(#paint1_linear_141_1923)"/>
<path id="Vector_3" d="M22.1316 14.7375L22.9358 12.3316L23.7329 14.7369C23.8131 14.9786 24.038 15.141 24.2926 15.141H24.5681C24.8198 15.141 25.0439 14.9811 25.1258 14.743L26.3389 11.214C26.4016 11.0315 26.3732 10.8368 26.2611 10.6798C26.1491 10.5227 25.9741 10.4326 25.7812 10.4326C25.5257 10.4326 25.3005 10.5957 25.2209 10.8384L24.3966 13.3395L23.6509 10.9579C23.5524 10.6437 23.2651 10.4326 22.9359 10.4326C22.6075 10.4326 22.3204 10.643 22.2215 10.9561L21.4654 13.3396L20.6517 10.8398C20.5724 10.5962 20.3471 10.4326 20.0894 10.4326C19.8968 10.4326 19.7221 10.5224 19.61 10.6789C19.4979 10.8355 19.4691 11.0298 19.5311 11.212L20.7303 14.741C20.8117 14.9803 21.0361 15.141 21.2887 15.141H21.5721C21.8264 15.141 22.0513 14.9789 22.1316 14.7375Z" fill="url(#paint2_linear_141_1923)"/>
<path id="Vector_4" d="M19.7217 24.2874H2.45665C1.81109 24.2874 1.28592 23.7622 1.28592 23.1167V6.97692H31.2852V21.2485C31.2852 21.6035 31.573 21.8914 31.9281 21.8914C32.2832 21.8914 32.5711 21.6035 32.5711 21.2485V2.45665C32.5711 1.10203 31.469 0 30.1145 0H2.45665C1.10203 0 0 1.10204 0 2.45665V23.1167C0 24.4713 1.10204 25.5733 2.45665 25.5733H19.7217C20.0768 25.5733 20.3647 25.2855 20.3647 24.9304C20.3647 24.5753 20.0768 24.2874 19.7217 24.2874ZM2.45665 1.28591H30.1145C30.76 1.28591 31.2852 1.81109 31.2852 2.45664V5.69099H1.28591V2.45664C1.28591 1.81109 1.81109 1.28591 2.45665 1.28591Z" fill="url(#paint3_linear_141_1923)"/>
<path id="Vector_5" d="M3.05374 3.87127C3.07006 3.90982 3.08978 3.9467 3.11293 3.98186C3.13603 4.01698 3.16349 4.04958 3.19263 4.07955C3.22264 4.10956 3.25521 4.13615 3.29037 4.1593C3.32552 4.18244 3.36236 4.20216 3.4018 4.21844C3.44039 4.23472 3.48066 4.24674 3.52181 4.25532C3.563 4.2639 3.60586 4.26817 3.647 4.26817C3.68899 4.26817 3.73185 4.2639 3.773 4.25532C3.81415 4.24674 3.85446 4.23473 3.89301 4.21844C3.93244 4.20216 3.96932 4.18244 4.00448 4.1593C4.03961 4.13615 4.07221 4.10956 4.10218 4.07955C4.13135 4.04958 4.15878 4.01697 4.18192 3.98186C4.20507 3.94669 4.22479 3.90982 4.24107 3.87127C4.25735 3.83183 4.26937 3.79152 4.27795 3.75037C4.28653 3.70922 4.28996 3.6672 4.28996 3.62521C4.28996 3.58318 4.28653 3.54032 4.27795 3.49917C4.26937 3.45802 4.25736 3.41775 4.24107 3.37916C4.22479 3.33972 4.20507 3.30285 4.18192 3.26773C4.15878 3.23256 4.13136 3.20001 4.10218 3.16999C4.07221 3.14086 4.0396 3.11339 4.00448 3.09025C3.96932 3.0671 3.93244 3.04738 3.89301 3.0311C3.85446 3.01482 3.81415 3.0028 3.773 2.99427C3.68987 2.97799 3.60497 2.97799 3.5218 2.99427C3.48065 3.0028 3.44038 3.01481 3.40179 3.0311C3.36235 3.04738 3.32552 3.0671 3.29036 3.09025C3.25519 3.11339 3.22263 3.14085 3.19262 3.16999C3.16349 3.20001 3.13602 3.23257 3.11292 3.26773C3.08977 3.30285 3.07005 3.33972 3.05373 3.37916C3.03745 3.41775 3.02547 3.45802 3.01689 3.49917C3.00831 3.54032 3.00488 3.58318 3.00488 3.62521C3.00488 3.66719 3.00831 3.70922 3.01689 3.75037C3.02547 3.79152 3.03746 3.83183 3.05374 3.87127Z" fill="url(#paint4_linear_141_1923)"/>
<path id="Vector_6" d="M5.61026 3.87038C5.62567 3.90982 5.64538 3.94669 5.66853 3.98186C5.69256 4.01698 5.71914 4.04958 5.74915 4.07955C5.86828 4.1996 6.03459 4.26817 6.20349 4.26817C6.37235 4.26817 6.53871 4.1996 6.65783 4.07955C6.68785 4.04958 6.71443 4.01697 6.73841 3.98186C6.76156 3.94669 6.78127 3.90982 6.7976 3.87038C6.813 3.83183 6.82585 3.79152 6.83359 3.75037C6.84218 3.70922 6.84645 3.66636 6.84645 3.62521C6.84645 3.58318 6.84218 3.54032 6.83359 3.49917C6.82585 3.45802 6.813 3.41775 6.7976 3.37916C6.78127 3.33972 6.76156 3.30285 6.73841 3.26773C6.71442 3.23256 6.68785 3.20001 6.65783 3.16999C6.6287 3.14086 6.59525 3.11339 6.56014 3.09025C6.52581 3.0671 6.4881 3.04738 6.44955 3.0311C6.41095 3.01482 6.3698 3.0028 6.3295 2.99427C6.24636 2.97799 6.16064 2.97799 6.07746 2.99427C6.0372 3.0028 5.99605 3.01481 5.95745 3.0311C5.9189 3.04738 5.88115 3.0671 5.84686 3.09025C5.81174 3.11339 5.7783 3.14085 5.74917 3.16999C5.71915 3.20001 5.69257 3.23257 5.66855 3.26773C5.6454 3.30285 5.62568 3.33972 5.61028 3.37916C5.594 3.41775 5.5811 3.45802 5.5734 3.49917C5.56482 3.54032 5.56055 3.58318 5.56055 3.62521C5.56055 3.66719 5.56482 3.70922 5.5734 3.75037C5.58108 3.79152 5.59397 3.83183 5.61026 3.87038Z" fill="url(#paint5_linear_141_1923)"/>
<path id="Vector_7" d="M8.11431 3.87123C8.13059 3.90979 8.15031 3.94667 8.17346 3.98182C8.19744 4.01695 8.22402 4.04955 8.2532 4.07952C8.28317 4.10869 8.31578 4.13612 8.35178 4.15926C8.38606 4.18241 8.42377 4.20213 8.46237 4.21841C8.50092 4.23469 8.54123 4.24671 8.58238 4.25529C8.62436 4.26387 8.66639 4.26814 8.70837 4.26814C8.7504 4.26814 8.79243 4.26387 8.83357 4.25529C8.87471 4.24671 8.91587 4.2347 8.95442 4.21841C8.99302 4.20213 9.03073 4.18241 9.06501 4.15926C9.10018 4.13612 9.13362 4.1087 9.16275 4.07952C9.19276 4.04955 9.21935 4.01694 9.24249 3.98182C9.2656 3.94666 9.2862 3.90979 9.30164 3.87123C9.31792 3.8318 9.32989 3.79149 9.33848 3.75034C9.34706 3.70919 9.35133 3.66717 9.35133 3.62518C9.35133 3.58315 9.34706 3.54029 9.33848 3.49914C9.32989 3.45799 9.31795 3.41773 9.30166 3.37914C9.28621 3.3397 9.26562 3.30283 9.24251 3.26771C9.21937 3.23254 9.19278 3.19998 9.16277 3.16997C9.13364 3.14084 9.10019 3.11337 9.06503 3.09022C9.03075 3.06708 8.99304 3.04736 8.95444 3.03108C8.91589 3.0148 8.87474 3.00278 8.83359 2.99424C8.62525 2.95222 8.40323 3.02083 8.25321 3.16997C8.13404 3.28998 8.06543 3.45545 8.06543 3.62519C8.06543 3.66717 8.06974 3.70921 8.07832 3.75036C8.08601 3.79149 8.09886 3.8318 8.11431 3.87123Z" fill="url(#paint6_linear_141_1923)"/>
<path id="Vector_8" d="M14.6889 4.26774H27.6732C28.0283 4.26774 28.3162 3.97987 28.3162 3.62477C28.3162 3.26968 28.0283 2.98181 27.6732 2.98181H14.6889C14.3338 2.98181 14.0459 3.26968 14.0459 3.62477C14.0459 3.97987 14.3338 4.26774 14.6889 4.26774Z" fill="url(#paint7_linear_141_1923)"/>
<path id="Vector_9" d="M33.5172 25.2236L23.6756 16.9726C23.5016 16.8267 23.2563 16.8017 23.0564 16.9093C22.8565 17.0169 22.7424 17.2354 22.7683 17.4609L24.2097 30.0092C24.2375 30.2512 24.4201 30.4468 24.6596 30.4912C24.6935 30.4975 24.7273 30.5005 24.7609 30.5005C24.9646 30.5005 25.1556 30.3879 25.2524 30.2024L27.616 25.6714L33.1077 26.2007C33.3496 26.2241 33.5784 26.0871 33.6723 25.863C33.7663 25.6389 33.7034 25.3798 33.5172 25.2236ZM27.3503 24.5315C27.125 24.5096 26.9099 24.6267 26.8054 24.827L25.1053 28.0862L24.029 18.7163L31.4347 24.9251L27.3503 24.5315Z" fill="url(#paint8_linear_141_1923)"/>
</g>
</g>
<defs>
<linearGradient id="paint0_linear_141_1923" x1="8.42749" y1="10.4326" x2="8.42749" y2="15.141" gradientUnits="userSpaceOnUse">
<stop stop-color="#08C1F3"/>
<stop offset="1" stop-color="#0075CA"/>
</linearGradient>
<linearGradient id="paint1_linear_141_1923" x1="15.6812" y1="10.4326" x2="15.6812" y2="15.141" gradientUnits="userSpaceOnUse">
<stop stop-color="#08C1F3"/>
<stop offset="1" stop-color="#0075CA"/>
</linearGradient>
<linearGradient id="paint2_linear_141_1923" x1="22.9353" y1="10.4326" x2="22.9353" y2="15.141" gradientUnits="userSpaceOnUse">
<stop stop-color="#08C1F3"/>
<stop offset="1" stop-color="#0075CA"/>
</linearGradient>
<linearGradient id="paint3_linear_141_1923" x1="16.2855" y1="0" x2="16.2855" y2="25.5733" gradientUnits="userSpaceOnUse">
<stop stop-color="#08C1F3"/>
<stop offset="1" stop-color="#0075CA"/>
</linearGradient>
<linearGradient id="paint4_linear_141_1923" x1="3.64742" y1="2.98206" x2="3.64742" y2="4.26817" gradientUnits="userSpaceOnUse">
<stop stop-color="#08C1F3"/>
<stop offset="1" stop-color="#0075CA"/>
</linearGradient>
<linearGradient id="paint5_linear_141_1923" x1="6.2035" y1="2.98206" x2="6.2035" y2="4.26817" gradientUnits="userSpaceOnUse">
<stop stop-color="#08C1F3"/>
<stop offset="1" stop-color="#0075CA"/>
</linearGradient>
<linearGradient id="paint6_linear_141_1923" x1="8.70838" y1="2.98206" x2="8.70838" y2="4.26814" gradientUnits="userSpaceOnUse">
<stop stop-color="#08C1F3"/>
<stop offset="1" stop-color="#0075CA"/>
</linearGradient>
<linearGradient id="paint7_linear_141_1923" x1="21.181" y1="2.98181" x2="21.181" y2="4.26774" gradientUnits="userSpaceOnUse">
<stop stop-color="#08C1F3"/>
<stop offset="1" stop-color="#0075CA"/>
</linearGradient>
<linearGradient id="paint8_linear_141_1923" x1="28.2401" y1="16.843" x2="28.2401" y2="30.5005" gradientUnits="userSpaceOnUse">
<stop stop-color="#08C1F3"/>
<stop offset="1" stop-color="#0075CA"/>
</linearGradient>
</defs>
</svg>
