<svg width="22" height="22" viewBox="0 0 22 22" fill="none" xmlns="http://www.w3.org/2000/svg">
<g clip-path="url(#clip0_3096_248)">
<path d="M3.26325 18.375H18.7258C19.9794 18.3736 20.9955 17.3577 20.9968 16.1039V5.61162C20.9955 4.35801 19.9794 3.34192 18.7258 3.34056H3.26325C2.00963 3.34192 0.993547 4.35801 0.992188 5.61162V16.1039C0.993547 17.3577 2.00963 18.3736 3.26325 18.375ZM3.26325 17.6985C2.91428 17.699 2.57483 17.5842 2.29774 17.3719L6.922 12.6421C7.00777 12.5559 7.04054 12.4302 7.00807 12.3132C6.97561 12.196 6.88289 12.1054 6.76511 12.0757C6.64718 12.0458 6.52245 12.0814 6.4382 12.1693L1.85712 16.855C1.7333 16.6241 1.66852 16.3661 1.66867 16.1039V6.35726L9.52964 13.0135C10.376 13.734 11.6203 13.7337 12.466 13.0122L20.3203 6.35077V16.1039C20.3206 16.3671 20.2554 16.6259 20.1307 16.8574L15.5221 12.1684C15.3909 12.0364 15.1778 12.0351 15.045 12.1654C14.9122 12.2961 14.9098 12.5092 15.0397 12.6425L19.6893 17.3734C19.4125 17.5847 19.074 17.699 18.7258 17.6985H3.26325ZM3.26325 4.01705H18.7258C19.5508 4.01825 20.2391 4.64763 20.3137 5.46953L12.0286 12.4964C11.4347 13.0028 10.561 13.0031 9.96679 12.4971L1.67501 5.47602C1.74599 4.65155 2.43561 4.01825 3.26325 4.01705Z" fill="url(#paint0_linear_3096_248)"/>
</g>
<defs>
<linearGradient id="paint0_linear_3096_248" x1="9.22939" y1="-4.58669" x2="26.904" y2="1.22792" gradientUnits="userSpaceOnUse">
<stop stop-color="#07D8F4"/>
<stop offset="1" stop-color="#0969EF"/>
</linearGradient>
<clipPath id="clip0_3096_248">
<rect width="21.3383" height="21.3383" fill="white" transform="translate(0.334961 0.335037)"/>
</clipPath>
</defs>
</svg>
