<svg width="26" height="26" viewBox="0 0 26 26" fill="none" xmlns="http://www.w3.org/2000/svg">
<g id="Volume button" clip-path="url(#clip0_396_934)">
<g id="Group">
<g id="c154_volume">
<g id="Group_2">
<path id="Vector" d="M13.0012 0C5.82012 0 0.0012207 5.81983 0.0012207 12.9981C0.0012207 20.1792 5.82012 26 13.0012 26C20.1814 26 26.0003 20.1783 26.0003 12.9981C26.0003 5.81983 20.1805 0 13.0012 0ZM13.0012 24.6703C6.55376 24.6703 1.33088 19.4437 1.33088 12.9981C1.33088 6.55347 6.55376 1.32873 13.0012 1.32873C19.4459 1.32873 24.6688 6.55347 24.6688 12.9981C24.6678 19.4437 19.4459 24.6703 13.0012 24.6703Z" fill="#413939"/>
</g>
<path id="Vector_2" d="M13.2434 7.22886L8.47221 10.4914H6V15.5392H8.47221L13.1409 18.7135C13.1409 18.7135 14 19.3715 14 18.6932C14 18.0117 14 7.86095 14 7.23939C14 6.70698 13.2434 7.22886 13.2434 7.22886Z" fill="white"/>
<path id="Vector_3" d="M15.8087 9.18442C15.6233 8.93853 15.3232 8.93853 15.1391 9.18442C14.9536 9.42943 14.9536 9.82835 15.1391 10.0725C15.7487 10.8827 16.0515 11.9353 16.0515 12.9958C16.0515 14.0599 15.7487 15.1178 15.1391 15.9253C14.9536 16.1703 14.9536 16.5701 15.1391 16.816C15.2311 16.9416 15.3525 17 15.4759 17C15.5973 17 15.7167 16.9416 15.8087 16.816C16.6038 15.7626 17.0026 14.3756 17 12.9967C17.0033 11.6177 16.6031 10.2361 15.8087 9.18442Z" fill="white"/>
<path id="Vector_4" d="M17.1572 8.16917C16.9484 8.39554 16.9484 8.76065 17.1572 8.98702C18.3274 10.2325 18.9144 11.8584 18.9144 13.4901C18.9144 15.1298 18.332 16.7615 17.1572 18.0126C16.9468 18.2398 16.9484 18.6041 17.1572 18.8304C17.2632 18.9432 17.405 19 17.543 19C17.6825 19 17.8197 18.9432 17.9264 18.8304C19.3086 17.3562 20.0015 15.4203 20 13.4901C20.0015 11.5655 19.3055 9.63773 17.9264 8.16917C17.7137 7.94361 17.3707 7.94361 17.1572 8.16917Z" fill="white"/>
</g>
</g>
</g>
<defs>
<clipPath id="clip0_396_934">
<rect width="26" height="26" fill="white"/>
</clipPath>
</defs>
</svg>
