<svg width="1371" height="165" viewBox="0 0 1371 165" fill="none" xmlns="http://www.w3.org/2000/svg">
<path fill-rule="evenodd" clip-rule="evenodd" d="M820.5 30C836.792 30 850 16.7924 850 0.5C850 0.333006 849.999 0.166335 849.996 0H1371V165H0V0H521.004C521.001 0.166335 521 0.333006 521 0.5C521 16.7924 534.208 30 550.5 30C566.792 30 580 16.7924 580 0.5C580 0.333006 579.999 0.166335 579.996 0H602.001C602 0.166552 602 0.333219 602 0.5C602 46.6158 639.384 84 685.5 84C731.616 84 769 46.6158 769 0.5C769 0.333219 769 0.166552 768.999 0H791.004C791.001 0.166335 791 0.333006 791 0.5C791 16.7924 804.208 30 820.5 30Z" fill="#06080F"/>
</svg>
