<svg width="44" height="44" viewBox="0 0 44 44" fill="none" xmlns="http://www.w3.org/2000/svg">
<g id="Group 401">
<circle id="Ellipse 14" cx="22" cy="22" r="21.5" stroke="#0066B0"/>
<path id="Vector" fill-rule="evenodd" clip-rule="evenodd" d="M11.4663 26.8664C11.4663 28.9105 13.172 30.5706 15.2663 30.5706H27.7336C29.8279 30.5706 31.5337 28.9104 31.5337 26.8664V19.1335C31.5337 18.4513 31.3421 17.8106 31.0095 17.2606L24.9262 23.1906C24.0161 24.0803 22.7973 24.5706 21.4987 24.5706C20.2027 24.5706 18.984 24.0803 18.0738 23.1906L11.9905 17.2606C11.6579 17.8106 11.4663 18.4513 11.4663 19.1335V26.8664H11.4663ZM15.2664 15.4293H27.7336C28.5985 15.4293 29.3969 15.7146 30.0355 16.1893L23.891 22.1815C23.255 22.7989 22.4061 23.1413 21.4987 23.1413C20.5939 23.1413 19.745 22.7989 19.109 22.1815L12.9645 16.1893C13.6031 15.7146 14.4014 15.4293 15.2664 15.4293ZM15.2664 14H27.7336C30.6369 14 33 16.3035 33 19.1336V26.8664C33 29.6991 30.6369 32 27.7336 32H15.2664C12.3631 32 10 29.6991 10 26.8664V19.1335C10 16.3035 12.3631 14 15.2664 14Z" fill="url(#paint0_linear_3267_740)"/>
</g>
<defs>
<linearGradient id="paint0_linear_3267_740" x1="21.5" y1="14" x2="21.5" y2="32" gradientUnits="userSpaceOnUse">
<stop stop-color="#044EBB"/>
<stop offset="1" stop-color="#07A6FF"/>
</linearGradient>
</defs>
</svg>
