<svg width="44" height="44" viewBox="0 0 44 44" fill="none" xmlns="http://www.w3.org/2000/svg">
<g id="Group 400">
<circle id="Ellipse 13" cx="22" cy="22" r="21.5" stroke="#0066B0"/>
<g id="Group">
<path id="Vector" d="M17.6623 12.1699C17.6992 12.1491 17.6896 12.1361 17.8191 12.1971C17.9487 12.2585 18.1545 12.4181 18.3566 12.6369C18.7598 13.0783 19.1646 13.7469 19.3753 14.1882C19.3819 14.2028 19.3899 14.2155 19.3977 14.2282C19.9921 15.2529 20.2481 16.0355 20.2562 16.5283C20.2646 17.0199 20.1335 17.2322 19.7157 17.4721L18.6352 18.0938C17.9322 18.4983 17.6006 19.2232 17.5182 19.8995C17.4351 20.5762 17.5588 21.2335 17.8597 21.7533L20.5221 26.3423C20.8249 26.8609 21.3364 27.296 21.9665 27.5632C22.5966 27.8307 23.3934 27.9063 24.0961 27.5022L25.1778 26.8835C25.5956 26.6436 25.8448 26.6368 26.2691 26.8897C26.6947 27.1426 27.2467 27.7532 27.8411 28.7773C27.8495 28.7921 27.8576 28.8048 27.8672 28.8194C28.1455 29.2205 28.5246 29.9036 28.7074 30.4723C28.7982 30.7556 28.8339 31.0116 28.8224 31.1551C28.8097 31.2971 28.8066 31.281 28.7691 31.3033L27.9493 31.7738C25.8882 32.6695 24 32.4681 22.3111 31.5903C20.6173 30.7122 19.1451 29.1222 18.1204 27.2573C18.1167 27.2539 18.1154 27.2489 18.112 27.2461L15.868 23.3771C15.8662 23.3722 15.8631 23.3691 15.8615 23.3638C14.7507 21.5488 14.0998 19.4852 14.1804 17.588C14.2616 15.6936 15.034 13.9654 16.8459 12.6363L17.6623 12.1699ZM18.3197 11.1408C17.9648 10.975 17.4757 10.9264 17.0756 11.157L16.208 11.6563C16.1882 11.6674 16.1705 11.6789 16.1529 11.6901C14.0638 13.2187 13.1018 15.3465 13.0082 17.5403C12.9136 19.7328 13.6463 21.9957 14.8557 23.9738L17.0889 27.8202C17.0901 27.8202 17.092 27.8202 17.092 27.8217L17.0951 27.8316C18.2124 29.8565 19.8142 31.6132 21.7672 32.628C23.7232 33.6431 26.0537 33.8783 28.4291 32.8425C28.4502 32.8344 28.4697 32.8248 28.4889 32.8149L29.3571 32.3159C29.7572 32.0853 29.9593 31.6427 29.9922 31.2543C30.0259 30.8644 29.9469 30.4894 29.827 30.1168C29.592 29.3807 29.1854 28.6694 28.8469 28.1775C28.2059 27.0791 27.5907 26.3141 26.8766 25.8889C26.1575 25.4606 25.2943 25.4668 24.5901 25.8712L23.5084 26.4914C23.1895 26.6749 22.8182 26.6554 22.428 26.4899C22.0362 26.3237 21.6754 25.9906 21.5394 25.7584L18.877 21.1694C18.7424 20.9375 18.6343 20.459 18.6845 20.0403C18.7359 19.6197 18.9042 19.2914 19.2232 19.1076L20.3018 18.4874C21.0063 18.0833 21.4451 17.3441 21.4318 16.5094C21.4172 15.6803 21.0596 14.7635 20.4195 13.6582C20.1604 13.1239 19.7463 12.4184 19.2263 11.8512C18.9625 11.5624 18.6742 11.3067 18.3197 11.1408Z" fill="url(#paint0_linear_3267_734)"/>
</g>
</g>
<defs>
<linearGradient id="paint0_linear_3267_734" x1="21.5" y1="11" x2="21.5" y2="33.5135" gradientUnits="userSpaceOnUse">
<stop stop-color="#045BDE"/>
<stop offset="1" stop-color="#00A3FF"/>
</linearGradient>
</defs>
</svg>
