<svg width="41" height="41" viewBox="0 0 41 41" fill="none" xmlns="http://www.w3.org/2000/svg">
<g id="abstract-svgrepo-com" clip-path="url(#clip0_141_6323)">
<path id="Vector" d="M20.5 0C36.9017 0 41 4.09829 41 20.5C41 36.9017 36.9017 41 20.5 41C4.09829 41 0 36.9017 0 20.5C0 4.09829 4.09829 0 20.5 0ZM17.1363 31.7135C21.4481 31.7186 25.0015 28.1772 25.01 23.8637C25.01 19.557 21.4669 16.0139 17.1602 16.0139C12.8535 16.0139 9.31042 19.5587 9.31042 23.8637C9.31042 28.1619 12.8381 31.7015 17.1363 31.7135ZM31.3906 31.3906V9.60938H9.60938V13.448H27.5435V31.3906H31.3906ZM17.1363 19.8628C17.6619 19.863 18.1824 19.9668 18.6679 20.1681C19.1534 20.3695 19.5946 20.6645 19.9661 21.0363C20.3376 21.4082 20.6322 21.8496 20.8332 22.3353C21.0341 22.821 21.1374 23.3415 21.1372 23.8671C21.137 24.3928 21.0332 24.9132 20.8319 25.3987C20.6305 25.8843 20.3355 26.3254 19.9637 26.6969C19.5918 27.0684 19.1504 27.3631 18.6647 27.564C18.179 27.765 17.6585 27.8683 17.1329 27.868C16.0713 27.8676 15.0534 27.4455 14.3031 26.6945C13.5528 25.9435 13.1315 24.9253 13.132 23.8637C13.1324 22.8021 13.5546 21.7842 14.3055 21.0339C15.0565 20.2836 16.0747 19.8623 17.1363 19.8628Z" fill="black"/>
</g>
<defs>
<clipPath id="clip0_141_6323">
<rect width="41" height="41" fill="white"/>
</clipPath>
</defs>
</svg>
