<svg width="56" height="34" viewBox="0 0 56 34" fill="none" xmlns="http://www.w3.org/2000/svg">
<g id="Amazon_Web_Services_Logo 1" clip-path="url(#clip0_141_6366)">
<g id="Group">
<path id="Vector" d="M15.8658 12.7722C15.8658 13.4516 15.9393 14.0025 16.0678 14.4065C16.2147 14.8105 16.3984 15.2512 16.6555 15.7287C16.7473 15.8756 16.784 16.0225 16.784 16.151C16.784 16.3347 16.6738 16.5183 16.4351 16.7019L15.2782 17.4732C15.113 17.5834 14.9477 17.6385 14.8008 17.6385C14.6171 17.6385 14.4335 17.5466 14.2499 17.3814C13.9928 17.1059 13.7724 16.8121 13.5888 16.5183C13.4052 16.2061 13.2215 15.8572 13.0195 15.4349C11.5872 17.1243 9.78762 17.969 7.62076 17.969C6.07825 17.969 4.84791 17.5283 3.94811 16.6468C3.04831 15.7654 2.58923 14.5902 2.58923 13.1211C2.58923 11.5602 3.14013 10.2932 4.26029 9.33827C5.38044 8.38338 6.86787 7.90594 8.75928 7.90594C9.38363 7.90594 10.0263 7.96103 10.7058 8.05284C11.3852 8.14466 12.083 8.29157 12.8176 8.45684V7.11632C12.8176 5.72071 12.5237 4.74746 11.9545 4.1782C11.3669 3.60894 10.3752 3.33349 8.96127 3.33349C8.31856 3.33349 7.65748 3.40695 6.97804 3.57222C6.29861 3.73749 5.63753 3.93948 4.99482 4.19657C4.701 4.32511 4.48065 4.39856 4.3521 4.43529C4.22356 4.47201 4.13174 4.49038 4.05829 4.49038C3.80121 4.49038 3.67266 4.30675 3.67266 3.92112V3.02132C3.67266 2.72751 3.70939 2.50715 3.80121 2.37861C3.89302 2.25006 4.05829 2.12152 4.31538 1.99298C4.95809 1.66244 5.72935 1.38699 6.62914 1.16663C7.52894 0.927912 8.48383 0.817732 9.49381 0.817732C11.679 0.817732 13.2766 1.31354 14.305 2.30515C15.315 3.29677 15.8291 4.80255 15.8291 6.82251V12.7722H15.8658ZM8.41038 15.5634C9.01636 15.5634 9.64071 15.4532 10.3018 15.2329C10.9629 15.0125 11.5505 14.6085 12.0463 14.0576C12.3401 13.7087 12.5605 13.3231 12.6706 12.8824C12.7808 12.4417 12.8543 11.9091 12.8543 11.2848V10.5135C12.3217 10.385 11.7525 10.2748 11.1649 10.2013C10.5772 10.1279 10.008 10.0912 9.43872 10.0912C8.20838 10.0912 7.30858 10.3299 6.7026 10.8257C6.09661 11.3215 5.8028 12.0193 5.8028 12.9375C5.8028 13.8005 6.02316 14.4432 6.48224 14.884C6.92296 15.343 7.56567 15.5634 8.41038 15.5634ZM23.156 17.5466C22.8255 17.5466 22.6052 17.4915 22.4582 17.363C22.3113 17.2528 22.1828 16.9957 22.0726 16.6468L17.7573 2.45206C17.6471 2.08479 17.592 1.84607 17.592 1.71753C17.592 1.42372 17.7389 1.25845 18.0327 1.25845H19.8323C20.1812 1.25845 20.4199 1.31354 20.5485 1.44208C20.6954 1.55226 20.8056 1.80935 20.9157 2.15825L24.0008 14.3147L26.8654 2.15825C26.9572 1.79098 27.0674 1.55226 27.2143 1.44208C27.3612 1.3319 27.6183 1.25845 27.9489 1.25845H29.4179C29.7668 1.25845 30.0055 1.31354 30.1524 1.44208C30.2993 1.55226 30.4279 1.80935 30.5013 2.15825L33.4027 14.4616L36.5796 2.15825C36.6897 1.79098 36.8183 1.55226 36.9468 1.44208C37.0937 1.3319 37.3325 1.25845 37.663 1.25845H39.3708C39.6646 1.25845 39.8299 1.40536 39.8299 1.71753C39.8299 1.80935 39.8115 1.90116 39.7931 2.01134C39.7748 2.12152 39.738 2.26843 39.6646 2.47042L35.2391 16.6652C35.1289 17.0325 35.0003 17.2712 34.8534 17.3814C34.7065 17.4915 34.4678 17.565 34.1556 17.565H32.5764C32.2275 17.565 31.9888 17.5099 31.8419 17.3814C31.6949 17.2528 31.5664 17.0141 31.493 16.6468L28.6467 4.80255L25.8187 16.6285C25.7269 16.9957 25.6167 17.2345 25.4698 17.363C25.3229 17.4915 25.0658 17.5466 24.7353 17.5466H23.156ZM46.7528 18.0424C45.7979 18.0424 44.843 17.9323 43.9249 17.7119C43.0067 17.4915 42.2905 17.2528 41.8131 16.9774C41.5193 16.8121 41.3173 16.6285 41.2438 16.4632C41.1704 16.2979 41.1336 16.1143 41.1336 15.949V15.0125C41.1336 14.6269 41.2806 14.4432 41.556 14.4432C41.6662 14.4432 41.7764 14.4616 41.8865 14.4983C41.9967 14.5351 42.162 14.6085 42.3456 14.682C42.97 14.9574 43.6494 15.1778 44.3656 15.3247C45.1001 15.4716 45.8163 15.545 46.5508 15.545C47.7077 15.545 48.6075 15.343 49.2318 14.9391C49.8562 14.5351 50.1867 13.9474 50.1867 13.1945C50.1867 12.6804 50.0215 12.258 49.6909 11.9091C49.3604 11.5602 48.736 11.248 47.8362 10.9542L45.1736 10.1279C43.833 9.70553 42.8414 9.08119 42.2354 8.25484C41.6295 7.44686 41.3173 6.54706 41.3173 5.59217C41.3173 4.82092 41.4825 4.14148 41.8131 3.55385C42.1436 2.96623 42.5843 2.45206 43.1352 2.04807C43.6861 1.62571 44.3105 1.31354 45.045 1.09318C45.7795 0.872822 46.5508 0.781006 47.3588 0.781006C47.7628 0.781006 48.1851 0.799369 48.5891 0.854459C49.0115 0.909548 49.3971 0.983001 49.7827 1.05645C50.15 1.14827 50.4989 1.24009 50.8294 1.35027C51.16 1.46045 51.4171 1.57062 51.6007 1.6808C51.8578 1.82771 52.0414 1.97462 52.1516 2.13988C52.2618 2.28679 52.3169 2.48879 52.3169 2.74587V3.60894C52.3169 3.99457 52.1699 4.19657 51.8945 4.19657C51.7476 4.19657 51.5089 4.12311 51.1967 3.97621C50.15 3.49876 48.9747 3.26004 47.671 3.26004C46.6243 3.26004 45.7979 3.42531 45.2286 3.77421C44.6594 4.12311 44.3656 4.65565 44.3656 5.40854C44.3656 5.92271 44.5492 6.36343 44.9165 6.71233C45.2837 7.06123 45.9632 7.41013 46.9364 7.72231L49.544 8.54865C50.8662 8.97101 51.821 9.55863 52.3903 10.3115C52.9596 11.0644 53.235 11.9275 53.235 12.8824C53.235 13.672 53.0697 14.3882 52.7576 15.0125C52.427 15.6369 51.9863 16.1878 51.4171 16.6285C50.8478 17.0876 50.1684 17.4181 49.3787 17.6568C48.5524 17.9139 47.6893 18.0424 46.7528 18.0424Z" fill="#252F3E"/>
<g id="Group_2">
<path id="Vector_2" fill-rule="evenodd" clip-rule="evenodd" d="M50.2234 26.967C44.1819 31.4293 35.4043 33.7981 27.857 33.7981C17.2798 33.7981 7.74929 29.8867 0.550906 23.3862C-0.0183538 22.872 0.495817 22.1742 1.17526 22.5782C8.96127 27.0955 18.5652 29.8317 28.4997 29.8317C35.2023 29.8317 42.566 28.436 49.342 25.5714C50.352 25.1123 51.2151 26.2325 50.2234 26.967Z" fill="#FF9900"/>
<path id="Vector_3" fill-rule="evenodd" clip-rule="evenodd" d="M52.7392 24.1023C51.968 23.1107 47.6342 23.6248 45.6694 23.8636C45.0818 23.937 44.9899 23.4229 45.5225 23.0372C48.9748 20.6133 54.649 21.3111 55.3101 22.1191C55.9711 22.9454 55.1264 28.6196 51.8945 31.3374C51.3987 31.7598 50.9213 31.5394 51.1416 30.9885C51.8761 29.1705 53.5105 25.0755 52.7392 24.1023Z" fill="#FF9900"/>
</g>
</g>
</g>
<defs>
<clipPath id="clip0_141_6366">
<rect width="55.8242" height="33.4211" fill="white" transform="translate(0 0.579102)"/>
</clipPath>
</defs>
</svg>
