<svg width="94" height="33" viewBox="0 0 94 33" fill="none" xmlns="http://www.w3.org/2000/svg">
<g id="django-logo-icon" clip-path="url(#clip0_141_6355)">
<path id="Vector" d="M11.0101 0.455078H16.1038V24.0342C13.49 24.5314 11.5723 24.7303 9.4881 24.7303C3.2742 24.7303 0.0272217 21.9176 0.0272217 16.5256C0.0272217 11.3325 3.47714 7.96372 8.79406 7.96372C9.54146 7.95003 10.2872 8.03948 11.0101 8.22956V0.455078ZM11.0101 12.3248C10.4561 12.1379 9.8738 12.0487 9.28923 12.061C6.70991 12.061 5.2305 13.648 5.2305 16.4262C5.2305 19.1394 6.65106 20.6269 9.2669 20.6269C9.85382 20.6265 10.4399 20.5824 11.0203 20.495L11.0101 12.3248Z" fill="#092E20"/>
<path id="Vector_2" d="M24.2091 8.3229V20.1399C24.2091 24.2087 23.9108 26.159 23.0179 27.8514C22.1899 29.4749 21.0981 30.4896 18.8496 31.622L14.1191 29.3613C16.3676 28.302 17.4594 27.3766 18.1535 25.954C18.882 24.4989 19.1134 22.8105 19.1134 18.3784V8.3229H24.2091ZM19.1134 0.481445H24.2091V5.70908H19.1134V0.481445Z" fill="#092E20"/>
<path id="Vector_3" d="M27.2856 9.47963C29.3901 8.46715 31.6979 7.94865 34.0332 7.9637C36.6471 7.9637 38.3659 8.65977 39.1269 10.0154C39.5572 10.7764 39.6891 11.7687 39.6891 13.8854V24.2351C37.2781 24.5805 34.8472 24.7683 32.4118 24.7972C28.1501 24.7972 26.2263 23.3097 26.2263 20.0019C26.2263 16.4282 28.7731 14.7742 35.0256 14.2446V13.1183C35.0256 12.1929 34.5629 11.8621 33.2722 11.8621C31.3869 11.8621 29.2703 12.3918 27.2856 13.4166V9.47963ZM35.2569 17.5849C31.8841 17.9157 30.7923 18.4453 30.7923 19.7685C30.7923 20.7608 31.4194 21.2235 32.8095 21.2235C33.6305 21.2176 34.4494 21.1402 35.2569 20.9922V17.5849Z" fill="#092E20"/>
<path id="Vector_4" d="M42.171 9.1163C45.1805 8.32282 47.6624 7.96362 50.1768 7.96362C52.7906 7.96362 54.6759 8.56026 55.8002 9.71699C56.8595 10.8088 57.1903 12 57.1903 14.5469V24.5374H52.0945V14.7397C52.0945 12.7874 51.433 12.0609 49.6147 12.0609C48.817 12.0603 48.0241 12.1842 47.2647 12.4282V24.5354H42.171V9.1163Z" fill="#092E20"/>
<path id="Vector_5" d="M59.1689 27.3097C60.8496 28.203 62.7245 28.6685 64.6279 28.6653C67.9682 28.6653 69.3908 27.3097 69.3908 24.0688V23.9694C68.3984 24.4645 67.4061 24.6634 66.0829 24.6634C61.6183 24.6634 58.7772 21.7188 58.7772 17.0553C58.7772 11.2655 62.978 7.99219 70.4197 7.99219C72.6556 8.00299 74.8844 8.24648 77.0699 8.7187L75.3165 12.3939C73.9609 12.128 75.209 12.3573 74.1841 12.2579V12.7876L74.2491 14.9387L74.2815 17.7169C74.316 18.4109 74.3161 19.107 74.3485 19.801V21.1912C74.3485 25.5563 73.9853 27.608 72.8935 29.2944C71.3065 31.7763 68.5608 33 64.6563 33C62.779 33.0256 60.9144 32.6887 59.1648 32.0077V27.3097H59.1689ZM69.2914 12.0895H68.7637C67.7339 12.0551 66.7147 12.3065 65.8191 12.816C64.6015 13.5121 63.9663 14.7682 63.9663 16.5541C63.9663 19.1029 65.2245 20.558 67.473 20.558C68.1255 20.5467 68.7723 20.4351 69.3908 20.2272V18.4779C69.3908 17.8833 69.3583 17.2197 69.3583 16.5257L69.3259 14.1777L69.2934 12.4913V12.0854L69.2914 12.0895Z" fill="#092E20"/>
<path id="Vector_6" d="M84.9743 7.89258C90.068 7.89258 93.179 11.101 93.179 16.2941C93.179 21.6212 89.932 24.9615 84.7754 24.9615C79.6817 24.9615 76.5341 21.7633 76.5341 16.5924C76.5341 11.2329 79.7811 7.89258 84.9743 7.89258ZM84.8748 20.8582C86.8271 20.8582 87.9838 19.2347 87.9838 16.426C87.9838 13.6478 86.8595 11.9939 84.9073 11.9939C82.8901 11.9939 81.7313 13.6174 81.7313 16.426C81.7313 19.2347 82.8901 20.8582 84.8748 20.8582Z" fill="#092E20"/>
</g>
<defs>
<clipPath id="clip0_141_6355">
<rect width="93.1517" height="32.5449" fill="white" transform="translate(0.0272217 0.455078)"/>
</clipPath>
</defs>
</svg>
