<svg width="32" height="47" viewBox="0 0 32 47" fill="none" xmlns="http://www.w3.org/2000/svg">
<g id="Figma-logo" clip-path="url(#clip0_141_6341)">
<path id="path0_fill" d="M7.83488 46.9904C12.158 46.9904 15.6666 43.4818 15.6666 39.1586V31.3269H7.83488C3.51176 31.3269 0.00314331 34.8355 0.00314331 39.1586C0.00314331 43.4818 3.51176 46.9904 7.83488 46.9904Z" fill="#0ACF83"/>
<path id="path1_fill" d="M0.00314331 23.4953C0.00314331 19.1722 3.51176 15.6636 7.83488 15.6636H15.6666V31.327H7.83488C3.51176 31.327 0.00314331 27.8184 0.00314331 23.4953Z" fill="#A259FF"/>
<path id="path1_fill_1_" d="M0.00326538 7.83173C0.00326538 3.50862 3.51188 0 7.835 0H15.6667V15.6635H7.835C3.51188 15.6635 0.00326538 12.1549 0.00326538 7.83173Z" fill="#F24E1E"/>
<path id="path2_fill" d="M15.6666 0H23.4983C27.8214 0 31.3301 3.50862 31.3301 7.83173C31.3301 12.1549 27.8214 15.6635 23.4983 15.6635H15.6666V0Z" fill="#FF7262"/>
<path id="path3_fill" d="M31.3301 23.4953C31.3301 27.8184 27.8214 31.327 23.4983 31.327C19.1752 31.327 15.6666 27.8184 15.6666 23.4953C15.6666 19.1722 19.1752 15.6636 23.4983 15.6636C27.8214 15.6636 31.3301 19.1722 31.3301 23.4953Z" fill="#1ABCFE"/>
</g>
<defs>
<clipPath id="clip0_141_6341">
<rect width="31.3332" height="46.9904" fill="white"/>
</clipPath>
</defs>
</svg>
