<svg width="114" height="32" viewBox="0 0 114 32" fill="none" xmlns="http://www.w3.org/2000/svg">
<g id="Firebase_Logo" clip-path="url(#clip0_141_6373)">
<path id="Vector" opacity="0.54" d="M34.1268 24.3679H32V7.9431H41.6592V9.96104H34.1271V15.3535H40.921V17.3249H34.1271V24.3679L34.1268 24.3679ZM45.6583 10.3069C45.1513 10.8124 44.3552 10.8918 43.757 10.4966C43.1588 10.1014 42.9253 9.34165 43.1994 8.68233C43.4735 8.023 44.1787 7.64771 44.8836 7.78613C45.5885 7.92456 46.0966 8.53813 46.0971 9.25134C46.1039 9.64858 45.9444 10.0308 45.6566 10.3069H45.6583ZM45.6583 24.3679H43.5315V13.1277H45.6583V24.3679ZM50.3254 24.3679H48.1986V13.1277H50.2315V14.9629H50.3236C50.5692 14.3162 51.0408 13.7787 51.6524 13.4485C52.2365 13.0764 52.9121 12.87 53.6059 12.8518C54.1507 12.8364 54.6929 12.9303 55.2002 13.1277L54.3913 15.0991C54.0265 14.9786 53.6432 14.9239 53.2593 14.9378C52.4794 14.9417 51.7372 15.2708 51.2137 15.8446C50.6203 16.4491 50.3236 17.2407 50.3236 18.2191L50.3254 24.3679ZM61.0282 24.7263C59.3178 24.7263 57.9276 24.1606 56.8576 23.0293C55.7876 21.8981 55.2519 20.4708 55.2507 18.748C55.2193 17.1968 55.7761 15.6905 56.8106 14.5275C57.8015 13.3699 59.2673 12.7202 60.7971 12.7602C62.4761 12.7602 63.8206 13.3033 64.8305 14.3893C65.8403 15.4753 66.3446 16.9281 66.3432 18.7477L66.3197 19.1384H57.3737C57.4351 20.2698 57.8166 21.1659 58.5183 21.8266C59.1746 22.466 60.0597 22.8205 60.9789 22.8123C62.504 22.8123 63.5361 22.1699 64.0753 20.8857L65.9711 21.6653C65.5869 22.554 64.9533 23.3143 64.1457 23.8553C63.2973 24.4359 62.2578 24.7263 61.0277 24.7263L61.0282 24.7263ZM64.0794 17.3786C64.0337 16.7359 63.737 16.1241 63.1893 15.5435C62.6417 14.9628 61.8274 14.6785 60.7465 14.6904C59.9969 14.6774 59.2686 14.939 58.701 15.4252C58.1063 15.9425 57.6901 16.632 57.5112 17.3965L64.0794 17.3786ZM74.0275 24.7263C73.2228 24.7421 72.427 24.5573 71.7129 24.1887C71.0858 23.8747 70.5552 23.3994 70.1765 22.8123H70.0844V24.3679H68.0497V7.9431H70.1765V13.1277L70.0844 14.6869H70.1765C70.5552 14.0998 71.0858 13.6245 71.7129 13.3105C72.4259 12.9376 73.2218 12.7485 74.0275 12.7604C75.4911 12.7604 76.755 13.3338 77.819 14.4808C78.883 15.6278 79.4144 17.0501 79.4132 18.7478C79.4121 20.4455 78.8818 21.8679 77.819 23.0149C76.7561 24.1618 75.4923 24.7323 74.0275 24.7263ZM73.6808 22.7998C74.6497 22.8074 75.5753 22.4022 76.2229 21.6869C76.9318 20.9449 77.2863 19.9623 77.2863 18.7388C77.2863 17.5154 76.9318 16.5327 76.2229 15.7908C75.5679 15.084 74.6452 14.6809 73.6777 14.6789C72.7103 14.6768 71.7859 15.076 71.1279 15.78C70.4274 16.5135 70.0771 17.4998 70.0771 18.7388C70.0771 19.9777 70.431 20.967 71.1387 21.7065C71.7903 22.4192 72.7185 22.8204 73.688 22.8087L73.6808 22.7998ZM84.8277 24.7263C83.6241 24.7263 82.6191 24.3822 81.8126 23.6941C81.0062 23.0059 80.6018 22.0961 80.5994 20.9647C80.5994 19.7412 81.0772 18.7819 82.0329 18.0865C82.9886 17.3911 84.167 17.0435 85.568 17.0435C86.8162 17.0435 87.8395 17.2729 88.6373 17.7317V17.4109C88.6677 16.6554 88.3533 15.9265 87.7815 15.427C87.1992 14.9292 86.4499 14.6664 85.6817 14.6904C85.0939 14.6832 84.515 14.8334 84.0063 15.1259C83.5298 15.3879 83.1644 15.8117 82.9772 16.3195L81.0363 15.4933C81.2987 14.8183 81.8151 14.1922 82.5879 13.6152C83.3606 13.0381 84.3753 12.7514 85.6391 12.755C87.0834 12.755 88.2871 13.1731 89.25 14.0094C90.2129 14.8457 90.6907 16.0309 90.6835 17.565V24.3679H88.6434V22.8087H88.5513C87.7028 24.0871 86.4624 24.7239 84.8302 24.7239L84.8277 24.7263ZM85.1744 22.7998C86.0681 22.7967 86.926 22.4505 87.5684 21.8338C88.2531 21.2609 88.6493 20.418 88.6517 19.5291C88.0499 19.0393 87.1472 18.7943 85.9435 18.7943C84.9108 18.7943 84.1326 19.016 83.6091 19.4592C83.1204 19.832 82.831 20.4066 82.8237 21.0183C82.8138 21.5507 83.0885 22.0487 83.5461 22.3266C84.0271 22.6476 84.5951 22.8157 85.1746 22.8087V22.7997L85.1744 22.7998ZM96.937 24.7263C95.6731 24.7263 94.6296 24.4204 93.8063 23.8087C93.0053 23.2215 92.3811 22.4284 92.0009 21.5148L93.8966 20.7352C94.4984 22.1427 95.5215 22.8464 96.9659 22.8464C97.5397 22.8697 98.1068 22.7177 98.5908 22.4109C98.9899 22.1649 99.2308 21.7302 99.2263 21.2639C99.2263 20.5303 98.71 20.0333 97.6748 19.7729L95.3873 19.2227C94.6346 19.025 93.9333 18.6693 93.3309 18.1797C92.6897 17.6833 92.3282 16.911 92.3595 16.1044C92.3595 15.1105 92.8025 14.3039 93.6884 13.685C94.615 13.0536 95.7189 12.7287 96.8425 12.7567C97.7807 12.7418 98.7057 12.9763 99.5218 13.4359C100.292 13.8701 100.888 14.5551 101.208 15.375L99.3611 16.1241C98.9458 15.1302 98.0828 14.633 96.7721 14.633C96.2145 14.6146 95.6627 14.7499 95.1779 15.0237C94.7806 15.228 94.5313 15.6352 94.5315 16.0793C94.5315 16.7221 95.0322 17.1582 96.0336 17.3875L98.2742 17.9162C99.337 18.1552 100.123 18.5733 100.632 19.1707C101.125 19.7287 101.396 20.4463 101.394 21.1886C101.404 22.1783 100.941 23.1142 100.146 23.7119C99.3148 24.3881 98.2441 24.7263 96.9346 24.7263L96.937 24.7263ZM108.376 24.7263C106.666 24.7263 105.276 24.1606 104.206 23.0293C103.136 21.8981 102.6 20.4676 102.599 18.7388C102.567 17.1877 103.124 15.6814 104.159 14.5184C105.153 13.3637 106.621 12.7175 108.151 12.7603C109.835 12.7603 111.18 13.3034 112.184 14.3894C113.188 15.4754 113.692 16.9282 113.697 18.7478L113.674 19.1385H104.72C104.781 20.2699 105.163 21.166 105.865 21.8267C106.523 22.466 107.41 22.8194 108.331 22.8087C109.856 22.8087 110.888 22.1663 111.427 20.8822L113.323 21.6617C112.939 22.5505 112.305 23.3108 111.498 23.8517C110.649 24.4347 109.609 24.7263 108.376 24.7263L108.376 24.7263ZM111.428 17.3786C111.382 16.7359 111.085 16.1241 110.537 15.5435C109.99 14.9628 109.177 14.6785 108.098 14.6904C107.349 14.6776 106.62 14.9391 106.053 15.4252C105.458 15.9425 105.042 16.632 104.863 17.3965L111.428 17.3786Z" fill="black"/>
<path id="Vector_2" d="M0.202026 25.6288L4.11286 0.603785C4.16067 0.296876 4.39936 0.0549367 4.70559 0.00291248C5.01182 -0.0491118 5.31698 0.100561 5.46341 0.374476L9.5079 7.91806L11.12 4.84861C11.2449 4.61128 11.491 4.46267 11.7592 4.46267C12.0274 4.46267 12.2735 4.61128 12.3984 4.84861L23.313 25.6287L0.202026 25.6288Z" fill="#FFA000"/>
<path id="Vector_3" d="M13.713 15.8807L9.50603 7.91455L0.202026 25.6289L13.713 15.8807Z" fill="#F57C00"/>
<path id="Vector_4" d="M23.3131 25.6287L20.3177 7.09283C20.2725 6.82665 20.0825 6.60798 19.8252 6.52556C19.568 6.44313 19.2864 6.51174 19.0954 6.70258L0.202026 25.6284L10.6562 31.491C11.3127 31.8576 12.1122 31.8576 12.7687 31.491L23.3131 25.6284V25.6287Z" fill="#FFCA28"/>
<path id="Vector_5" d="M20.3177 7.09303C20.2724 6.82684 20.0825 6.60818 19.8252 6.52575C19.5679 6.44333 19.2864 6.51194 19.0953 6.70277L15.3454 10.4622L12.3967 4.84857C12.2719 4.61123 12.0257 4.46263 11.7575 4.46263C11.4893 4.46263 11.2432 4.61123 11.1184 4.84857L9.50624 7.91802L5.46156 0.374553C5.3149 0.100565 5.00937 -0.0488649 4.70277 0.00354718C4.39618 0.0559593 4.15829 0.298505 4.11102 0.605656L0.201998 25.6289H0.189392L0.201998 25.6433L0.304907 25.6939L19.0899 6.88718C19.2808 6.69531 19.5631 6.62633 19.821 6.70852C20.079 6.7907 20.2693 7.01021 20.3141 7.27717L23.2842 25.6469L23.3131 25.6288L20.3177 7.09303ZM0.236301 25.5946L4.11284 0.782626C4.16006 0.475474 4.39851 0.232929 4.70484 0.180517C5.01116 0.128105 5.31671 0.277487 5.46362 0.551523L9.50787 8.09511L11.12 5.02566C11.2448 4.78832 11.491 4.63972 11.7592 4.63972C12.0274 4.63972 12.2735 4.78832 12.3983 5.02566L15.2872 10.52L0.236301 25.5946Z" fill="white" fill-opacity="0.2"/>
<path id="Vector_6" opacity="0.2" d="M12.7687 31.3144C12.1122 31.6809 11.3127 31.6809 10.6562 31.3144L0.227311 25.468L0.202026 25.6288L10.6562 31.4896C11.3127 31.8562 12.1122 31.8562 12.7687 31.4896L23.3131 25.6288L23.286 25.4626L12.7687 31.3144Z" fill="#A52714"/>
<path id="Vector_7" d="M20.2878 7.09677C20.2427 6.83066 20.0533 6.61192 19.797 6.52998C19.5407 6.44804 19.2601 6.51616 19.0697 6.70695L15.3327 10.4645L12.3945 4.85345C12.2701 4.61621 12.0248 4.46765 11.7576 4.46765C11.4904 4.46765 11.2451 4.61621 11.1207 4.85345L9.51395 7.92157L5.48364 0.381229C5.33746 0.107363 5.03303 -0.0420433 4.72777 0.010393C4.4225 0.0628294 4.18488 0.305181 4.13783 0.61226L0.242432 25.6245L10.6601 31.4828C11.3142 31.8491 12.111 31.8491 12.7652 31.4828L23.2727 25.6245L20.2878 7.09672V7.09677Z" fill="url(#paint0_linear_141_6373)"/>
</g>
<defs>
<linearGradient id="paint0_linear_141_6373" x1="-80.1333" y1="540.513" x2="2793.84" y2="2056.5" gradientUnits="userSpaceOnUse">
<stop stop-color="white" stop-opacity="0.1"/>
<stop offset="0.14" stop-color="white" stop-opacity="0.08"/>
<stop offset="0.61" stop-color="white" stop-opacity="0.02"/>
<stop offset="1" stop-color="white" stop-opacity="0"/>
</linearGradient>
<clipPath id="clip0_141_6373">
<rect width="113.697" height="32" fill="white"/>
</clipPath>
</defs>
</svg>
