<svg width="39" height="40" viewBox="0 0 39 40" fill="none" xmlns="http://www.w3.org/2000/svg">
<g id="Laravel" clip-path="url(#clip0_141_6363)">
<path id="Vector" fill-rule="evenodd" clip-rule="evenodd" d="M38.1738 8.89529C38.188 8.94771 38.1953 9.00175 38.1954 9.05605V17.4961C38.1954 17.6044 38.1668 17.7108 38.1125 17.8045C38.0582 17.8983 37.9801 17.976 37.8862 18.0299L30.8023 22.1084V30.1922C30.8023 30.4122 30.6854 30.6153 30.4946 30.7261L15.7077 39.2384C15.6738 39.2576 15.6369 39.2699 15.6 39.283C15.5862 39.2876 15.5731 39.2961 15.5585 39.2999C15.4551 39.3271 15.3464 39.3271 15.2431 39.2999C15.2262 39.2953 15.2108 39.2861 15.1946 39.2799C15.1608 39.2676 15.1254 39.2568 15.0931 39.2384L0.309231 30.7261C0.215313 30.6721 0.137277 30.5943 0.0829881 30.5006C0.0286988 30.4069 7.44149e-05 30.3005 0 30.1922L0 4.87221C0 4.81682 0.00769231 4.76298 0.0215385 4.71067C0.0261538 4.69298 0.0369231 4.67682 0.0430769 4.65913C0.0546154 4.62682 0.0653846 4.59375 0.0823077 4.56375C0.0938462 4.54375 0.110769 4.52759 0.124615 4.50913C0.142308 4.48452 0.158462 4.45913 0.179231 4.43759C0.196923 4.4199 0.22 4.40682 0.24 4.39144C0.262308 4.37298 0.282308 4.35298 0.307692 4.33836L7.70077 0.0822086C7.79437 0.0283475 7.90047 0 8.00846 0C8.11645 0 8.22255 0.0283475 8.31615 0.0822086L15.7085 4.33836H15.71C15.7346 4.35375 15.7554 4.37298 15.7777 4.39067C15.7977 4.40605 15.82 4.4199 15.8377 4.43682C15.8592 4.45913 15.8746 4.48452 15.8931 4.50913C15.9062 4.52759 15.9238 4.54375 15.9346 4.56375C15.9523 4.59452 15.9623 4.62682 15.9746 4.65913C15.9808 4.67682 15.9915 4.69298 15.9962 4.71144C16.0103 4.76386 16.0176 4.81791 16.0177 4.87221V20.6868L22.1777 17.1399V9.05529C22.1777 9.00144 22.1854 8.94682 22.1992 8.89529C22.2046 8.87682 22.2146 8.86067 22.2208 8.84298C22.2331 8.81067 22.2438 8.77759 22.2608 8.74759C22.2723 8.72759 22.2892 8.71144 22.3023 8.69298C22.3208 8.66836 22.3362 8.64298 22.3577 8.62144C22.3754 8.60375 22.3977 8.59067 22.4177 8.57528C22.4408 8.55682 22.4608 8.53682 22.4854 8.52221L29.8792 4.26605C29.9728 4.21212 30.0789 4.18373 30.1869 4.18373C30.2949 4.18373 30.401 4.21212 30.4946 4.26605L37.8869 8.52221C37.9131 8.53759 37.9331 8.55682 37.9562 8.57452C37.9754 8.5899 37.9977 8.60375 38.0154 8.62067C38.0369 8.64298 38.0523 8.66836 38.0708 8.69298C38.0846 8.71144 38.1015 8.72759 38.1123 8.74759C38.13 8.77759 38.14 8.81067 38.1523 8.84298C38.1592 8.86067 38.1692 8.87682 38.1738 8.89529ZM36.9631 17.1399V10.1214L34.3762 11.6107L30.8023 13.6684V20.6868L36.9638 17.1399H36.9631ZM29.5708 29.8361V22.813L26.0554 24.8207L16.0169 30.5499V37.6391L29.5708 29.8361ZM1.23231 5.93759V29.8361L14.7846 37.6384V30.5507L7.70462 26.5437L7.70231 26.5422L7.69923 26.5407C7.67538 26.5268 7.65539 26.5068 7.63308 26.4899C7.61385 26.4745 7.59154 26.4622 7.57462 26.4453L7.57308 26.443C7.55308 26.4237 7.53923 26.3999 7.52231 26.3784C7.50692 26.3576 7.48846 26.3399 7.47615 26.3184L7.47539 26.3161C7.46154 26.293 7.45308 26.2653 7.44308 26.2391C7.43308 26.2161 7.42 26.1945 7.41385 26.1699C7.40615 26.1407 7.40462 26.1091 7.40154 26.0791C7.39846 26.0561 7.39231 26.033 7.39231 26.0099V26.0084V9.48452L3.81923 7.42605L1.23231 5.93759ZM8.00923 1.32682L1.85 4.87221L8.00769 8.41759L14.1662 4.87144L8.00769 1.32682H8.00923ZM11.2123 23.453L14.7854 21.3961V5.93759L12.1985 7.42682L8.62462 9.48452V24.943L11.2123 23.453ZM30.1869 5.51067L24.0285 9.05605L30.1869 12.6014L36.3446 9.05529L30.1869 5.51067ZM29.5708 13.6684L25.9969 11.6107L23.41 10.1214V17.1399L26.9831 19.1968L29.5708 20.6868V13.6684ZM15.4 29.4845L24.4331 24.3276L28.9485 21.7507L22.7946 18.2076L15.7092 22.2868L9.25154 26.0045L15.4 29.4845Z" fill="#FF2D20"/>
</g>
<defs>
<clipPath id="clip0_141_6363">
<rect width="38.4615" height="40" fill="white"/>
</clipPath>
</defs>
</svg>
