<svg width="164" height="36" viewBox="0 0 164 36" fill="none" xmlns="http://www.w3.org/2000/svg">
<g id="logo 1" clip-path="url(#clip0_141_6307)">
<path id="XMLID_12_" d="M162.764 0H0V36H162.764V0Z" fill="#FCCF00"/>
<path id="XMLID_11_" d="M112.255 0.436523H111.382V35.6729H112.255V0.436523Z" fill="#231916"/>
<path id="Path 1" d="M0.872727 0.872727H162.873V35.2364H0.872727V0.872727ZM0 0V36H163.636V0H0Z" fill="#231916"/>
<path id="Path 2" d="M30 12.8726C32.7811 12.7884 35.544 13.3485 38.0728 14.509L43.6364 11.2362C39.2975 9.37019 34.6136 8.44085 29.8909 8.50896C26.8344 8.40047 23.7797 8.76852 20.8364 9.59987C14.2909 11.3453 10.9091 15.2726 10.9091 19.6362C10.9091 22.4726 12 24.4362 14.6182 26.3999C18 28.7999 22.4728 29.8908 29.1273 29.8908C33.9726 29.9914 38.8012 29.2911 43.4182 27.818V17.6726H28.3637L29.4546 21.9271H33.1637V25.1999C31.9405 25.4267 30.6985 25.5363 29.4546 25.5271C24.7637 25.5271 21.3818 23.4544 21.3818 19.418C21.4909 14.8362 24.6546 12.8726 30 12.8726ZM55.7455 7.63623C52.8 7.63623 50.4 8.83623 50.4 10.2544C50.4 11.7817 52.8 12.8726 55.5273 12.8726C58.4728 12.8726 60.7637 11.6726 60.7637 10.2544C60.8728 8.83623 58.5819 7.63623 55.7455 7.63623ZM50.7273 29.6726H60.5455V14.618L50.7273 15.0544V29.6726ZM81.9273 26.509C79.4182 26.509 78.8728 26.0726 78.8728 23.8908V18.8726H82.6909L83.7819 14.7271H78.8728V9.05441L69.0546 9.81805V14.618H66.5455V18.7635H68.9455V26.2908C68.9455 29.2362 72.6546 29.9999 78.1091 29.9999C80.609 30.0267 83.102 29.7334 85.5273 29.1271L84.4364 26.1817C83.6203 26.4118 82.7751 26.5221 81.9273 26.509ZM95.2364 12.9817C98.1819 12.9817 100.473 11.7817 100.473 10.3635C100.473 8.83623 98.1819 7.74532 95.3455 7.74532C92.4 7.74532 90 8.94532 90 10.3635C90.1091 11.7817 92.5091 12.9817 95.2364 12.9817ZM90.4364 29.6726H100.364V14.618L90.4364 15.0544V29.6726Z" fill="#231916"/>
<g id="Group 1">
<path id="Path 3" d="M152.618 11.782C152.562 11.8829 152.485 11.9716 152.394 12.0429C152.303 12.1141 152.198 12.1665 152.087 12.1969C151.975 12.2274 151.858 12.2353 151.744 12.2203C151.629 12.2052 151.518 12.1675 151.418 12.1093C151.204 12.0051 151.038 11.8216 150.957 11.5976C150.876 11.3737 150.884 11.1268 150.982 10.9093C151.038 10.8083 151.115 10.7196 151.206 10.6484C151.297 10.5772 151.402 10.5248 151.513 10.4944C151.625 10.4639 151.742 10.456 151.856 10.471C151.971 10.4861 152.082 10.5238 152.182 10.582C152.39 10.6925 152.55 10.8763 152.631 11.098C152.712 11.3197 152.707 11.5635 152.618 11.782ZM152.509 6.10927C151.091 5.6729 150.873 5.782 150.764 5.782C149.023 4.75492 147.094 4.08722 145.091 3.81836C144.436 3.81836 144.436 5.23654 144.436 5.89109C144.436 6.43654 144.873 11.4547 145.527 12.7638C145.619 12.9274 145.745 13.0701 145.895 13.1828C146.045 13.2955 146.217 13.3757 146.4 13.4184C146.792 13.5138 147.197 13.5505 147.6 13.5275C147.6 13.5275 148.582 13.6365 149.236 13.6365H150.545L150.655 13.9638C151.2 16.1456 151.964 22.2547 151.964 22.3638C151.974 22.5059 151.937 22.6474 151.858 22.766C151.779 22.8845 151.662 22.9734 151.527 23.0184H150.873L150.764 22.6911C150.436 20.9456 150.218 17.3456 149.564 14.7275C149.018 14.7275 146.836 14.6184 146.836 14.6184C146.351 14.5736 145.874 14.4635 145.418 14.2911C144.865 14.0256 144.435 13.5566 144.218 12.982C143.572 10.5962 143.206 8.14335 143.127 5.6729C140.921 5.73642 138.728 6.0289 136.582 6.54563C135.927 6.76381 135.382 6.982 135.382 6.982C131.394 8.38527 127.93 10.9736 125.455 14.4002C121.418 19.6365 119.891 23.3456 120 23.4547H120.982C119.564 26.2911 118.145 29.3456 118.036 29.5638H126.109L126.327 29.1275C128.727 25.0911 132.873 21.6002 136.473 21.6002C141.055 21.6002 144.655 23.782 144.873 29.1275V29.4547H151.2C151.309 29.6729 160.145 8.40018 152.509 6.10927Z" fill="#231916"/>
</g>
</g>
<defs>
<clipPath id="clip0_141_6307">
<rect width="163.636" height="36" fill="white"/>
</clipPath>
</defs>
</svg>
