<svg width="42" height="42" viewBox="0 0 42 42" fill="none" xmlns="http://www.w3.org/2000/svg">
<g id="miro-logos-idG4aRyg5R" clip-path="url(#clip0_141_6408)">
<g id="Group">
<path id="Vector" d="M9.1 0H32.9C37.8875 0 42 4.1125 42 9.1V32.9C42 37.8875 37.8875 42 32.9 42H9.1C4.1125 42 0 37.8875 0 32.9V9.1C0 4.1125 4.1125 0 9.1 0Z" fill="#FFD02F"/>
<path id="Vector_2" fill-rule="evenodd" clip-rule="evenodd" d="M29.1375 5.25H24.5L28.35 11.9875L19.95 5.25H15.3125L19.5125 13.475L10.7625 5.25H6.125L10.7625 15.75L6.125 36.75H10.7625L19.6 14.2625L15.3125 36.75H19.95L28.4375 12.775L24.5875 36.75H29.225L37.625 10.5L29.1375 5.25Z" fill="#050038"/>
</g>
</g>
<defs>
<clipPath id="clip0_141_6408">
<rect width="42" height="42" fill="white"/>
</clipPath>
</defs>
</svg>
