<svg width="42" height="38" viewBox="0 0 42 38" fill="none" xmlns="http://www.w3.org/2000/svg">
<g id="Sketch_Logo" clip-path="url(#clip0_141_6326)">
<g id="Page-1">
<g id="sketch-symbol">
<path id="Path" d="M8.94699 1.22176L20.5035 0L32.0601 1.22176L41.007 13.2323L20.5035 37.1084L0 13.2323L8.94699 1.22176Z" fill="#FDB300"/>
<g id="Group">
<path id="Path_2" d="M8.30496 13.2324L20.5035 37.1086L0 13.2324H8.30496Z" fill="#EA6C00"/>
<path id="Path_3" d="M32.7021 13.2324L20.5035 37.1086L41.007 13.2324H32.7021Z" fill="#EA6C00"/>
<path id="Path_4" d="M8.30495 13.2324H32.7021L20.5035 37.1086L8.30495 13.2324Z" fill="#FDAD00"/>
</g>
<g id="Group_2">
<path id="Path_5" d="M20.5035 0L8.94696 1.22175L8.30495 13.2323L20.5035 0Z" fill="#FDD231"/>
<path id="Path_6" d="M20.5035 0L32.0601 1.22175L32.7021 13.2323L20.5035 0Z" fill="#FDD231"/>
<path id="Path_7" d="M41.0071 13.2322L32.06 1.22168L32.7021 13.2322H41.0071Z" fill="#FDAD00"/>
<path id="Path_8" d="M0 13.2322L8.94696 1.22168L8.30496 13.2322H0Z" fill="#FDAD00"/>
<path id="Path_9" d="M20.5035 0L8.30495 13.2323H32.7021L20.5035 0Z" fill="#FEEEB7"/>
</g>
</g>
</g>
</g>
<defs>
<clipPath id="clip0_141_6326">
<rect width="41.0899" height="37.1269" fill="white"/>
</clipPath>
</defs>
</svg>
