<svg width="21" height="21" viewBox="0 0 21 21" fill="none" xmlns="http://www.w3.org/2000/svg">
<g clip-path="url(#clip0_3096_237)">
<path d="M18.6942 4.84721C18.6942 5.07021 18.5135 5.25095 18.2905 5.25095C18.0675 5.25095 17.8867 5.07021 17.8867 4.84721C17.8867 4.6242 18.0675 4.44347 18.2905 4.44347C18.5135 4.44347 18.6942 4.6242 18.6942 4.84721Z" fill="url(#paint0_linear_3096_237)"/>
<path d="M16.2715 4.84721C16.2715 5.07021 16.0908 5.25095 15.8678 5.25095C15.6448 5.25095 15.4639 5.07021 15.4639 4.84721C15.4639 4.6242 15.6448 4.44347 15.8678 4.44347C16.0908 4.44347 16.2715 4.6242 16.2715 4.84721Z" fill="url(#paint1_linear_3096_237)"/>
<path d="M13.8487 4.84722C13.8487 5.07022 13.6678 5.25096 13.4448 5.25096C13.2218 5.25096 13.041 5.07022 13.041 4.84722C13.041 4.62422 13.2218 4.44348 13.4448 4.44348C13.6678 4.44348 13.8487 4.62422 13.8487 4.84722Z" fill="url(#paint2_linear_3096_237)"/>
<path d="M15.8678 0.00186157C13.1961 0.00186157 11.0225 2.17543 11.0225 4.84721C11.0225 5.81587 11.3079 6.7451 11.8503 7.54754L11.0431 9.96855C10.9916 10.1236 11.0384 10.2942 11.1617 10.4013C11.2854 10.5087 11.4612 10.5302 11.6068 10.4575L13.9427 9.28945C14.5562 9.55709 15.2028 9.69256 15.8678 9.69256C18.5395 9.69256 20.7132 7.51883 20.7132 4.84721C20.7132 2.17543 18.5395 0.00186157 15.8678 0.00186157ZM15.8678 8.88492C15.2592 8.88492 14.6681 8.74819 14.1114 8.47834C13.9986 8.42378 13.8668 8.42457 13.7547 8.48055L12.1176 9.29907L12.681 7.6092C12.7226 7.48429 12.7008 7.34709 12.6226 7.24126C12.1041 6.54055 11.83 5.71273 11.83 4.84721C11.83 2.62081 13.6413 0.809499 15.8678 0.809499C18.0942 0.809499 19.9055 2.62081 19.9055 4.84721C19.9055 7.07361 18.0942 8.88492 15.8678 8.88492Z" fill="url(#paint3_linear_3096_237)"/>
<path d="M8.03404 13.0034C8.03404 13.2264 7.85331 13.4073 7.6303 13.4073C7.4073 13.4073 7.22656 13.2264 7.22656 13.0034C7.22656 12.7804 7.4073 12.5996 7.6303 12.5996C7.85331 12.5996 8.03404 12.7804 8.03404 13.0034Z" fill="url(#paint4_linear_3096_237)"/>
<path d="M14.0484 12.7446C13.8909 12.5869 13.6351 12.587 13.4774 12.7446L11.5419 14.6797C11.2672 14.9546 10.8431 15.0106 10.5337 14.813C10.0891 14.5289 9.65462 14.2186 9.24253 13.8904C9.0681 13.7516 8.81402 13.7804 8.67508 13.9549C8.5363 14.1294 8.56516 14.3834 8.73958 14.5223C9.17361 14.8677 9.63081 15.1945 10.0991 15.4935C10.7256 15.8936 11.5729 15.7914 12.1132 15.2506L13.7628 13.6011L17.5547 17.3925L16.0607 18.886C15.0964 19.8506 13.6461 20.1359 12.4518 19.5962C6.10093 16.7262 2.79625 11.8603 1.14234 8.28374C0.574424 7.05565 0.847106 5.57632 1.82097 4.60261L3.29257 3.1307L7.08441 6.92222L5.4346 8.57188C4.89381 9.11267 4.79193 9.95989 5.1922 10.5862C5.47765 11.0331 5.78882 11.4708 6.11685 11.887C6.25485 12.0622 6.50877 12.0923 6.68383 11.9541C6.85904 11.8161 6.88916 11.5622 6.75101 11.3872C6.43937 10.9918 6.14382 10.5759 5.87256 10.1514C5.67479 9.84192 5.73078 9.41784 6.00567 9.14295L7.94094 7.20768C8.09849 7.04997 8.09865 6.79432 7.94094 6.63661L3.57818 2.27417C3.42047 2.11662 3.16482 2.11662 3.00711 2.27417L1.2499 4.03154C0.0377341 5.24355 -0.299925 7.08877 0.409458 8.62282C2.76424 13.715 6.75495 17.9079 12.1193 20.3321C13.6267 21.0134 15.4388 20.6505 16.6318 19.4571L18.4112 17.6781C18.5688 17.5204 18.5689 17.2646 18.4112 17.107L14.0484 12.7446Z" fill="url(#paint5_linear_3096_237)"/>
</g>
<defs>
<linearGradient id="paint0_linear_3096_237" x1="18.2192" y1="4.0177" x2="18.9643" y2="4.20192" gradientUnits="userSpaceOnUse">
<stop stop-color="#07D8F4"/>
<stop offset="1" stop-color="#0969EF"/>
</linearGradient>
<linearGradient id="paint1_linear_3096_237" x1="15.7964" y1="4.0177" x2="16.5416" y2="4.20199" gradientUnits="userSpaceOnUse">
<stop stop-color="#07D8F4"/>
<stop offset="1" stop-color="#0969EF"/>
</linearGradient>
<linearGradient id="paint2_linear_3096_237" x1="13.3736" y1="4.01772" x2="14.1188" y2="4.20201" gradientUnits="userSpaceOnUse">
<stop stop-color="#07D8F4"/>
<stop offset="1" stop-color="#0969EF"/>
</linearGradient>
<linearGradient id="paint3_linear_3096_237" x1="15.0128" y1="-5.53355" x2="24.0317" y2="-3.47519" gradientUnits="userSpaceOnUse">
<stop stop-color="#07D8F4"/>
<stop offset="1" stop-color="#0969EF"/>
</linearGradient>
<linearGradient id="paint4_linear_3096_237" x1="7.55905" y1="12.1738" x2="8.30417" y2="12.358" gradientUnits="userSpaceOnUse">
<stop stop-color="#07D8F4"/>
<stop offset="1" stop-color="#0969EF"/>
</linearGradient>
<linearGradient id="paint5_linear_3096_237" x1="7.65446" y1="-7.60765" x2="24.7168" y2="-3.39589" gradientUnits="userSpaceOnUse">
<stop stop-color="#07D8F4"/>
<stop offset="1" stop-color="#0969EF"/>
</linearGradient>
<clipPath id="clip0_3096_237">
<rect width="20.6715" height="20.6715" fill="white" transform="translate(0.00195312 0.00186157)"/>
</clipPath>
</defs>
</svg>
