<svg width="168" height="168" viewBox="0 0 168 168" fill="none" xmlns="http://www.w3.org/2000/svg">
<g opacity="0.6" filter="url(#filter0_f_1180_480)">
<circle cx="84" cy="84" r="44" fill="#008BEF"/>
</g>
<circle cx="84" cy="84" r="14.5" fill="url(#paint0_linear_1180_480)" stroke="white"/>
<g clip-path="url(#clip0_1180_480)">
<path d="M84.0001 74.9409C80.3819 74.9409 77.4384 77.8844 77.4384 81.5026C77.4384 85.9928 83.3105 92.5847 83.5605 92.8631C83.7953 93.1247 84.2053 93.1242 84.4397 92.8631C84.6897 92.5847 90.5619 85.9928 90.5619 81.5026C90.5618 77.8844 87.6183 74.9409 84.0001 74.9409ZM84.0001 91.5633C82.0238 89.2158 78.62 84.5843 78.62 81.5027C78.62 78.536 81.0335 76.1225 84.0001 76.1225C86.9667 76.1225 89.3802 78.536 89.3802 81.5026C89.3802 84.5844 85.9769 89.215 84.0001 91.5633Z" fill="white"/>
<path d="M83.9996 78.2012C82.1792 78.2012 80.6982 79.6822 80.6982 81.5026C80.6982 83.323 82.1792 84.804 83.9996 84.804C85.82 84.804 87.3009 83.323 87.3009 81.5026C87.3009 79.6822 85.82 78.2012 83.9996 78.2012ZM83.9996 83.6224C82.8308 83.6224 81.8799 82.6715 81.8799 81.5026C81.8799 80.3338 82.8308 79.3829 83.9996 79.3829C85.1684 79.3829 86.1193 80.3338 86.1193 81.5026C86.1193 82.6715 85.1684 83.6224 83.9996 83.6224Z" fill="white"/>
</g>
<defs>
<filter id="filter0_f_1180_480" x="0" y="0" width="168" height="168" filterUnits="userSpaceOnUse" color-interpolation-filters="sRGB">
<feFlood flood-opacity="0" result="BackgroundImageFix"/>
<feBlend mode="normal" in="SourceGraphic" in2="BackgroundImageFix" result="shape"/>
<feGaussianBlur stdDeviation="20" result="effect1_foregroundBlur_1180_480"/>
</filter>
<linearGradient id="paint0_linear_1180_480" x1="81.5294" y1="55.2364" x2="107.366" y2="61.6244" gradientUnits="userSpaceOnUse">
<stop stop-color="#07D8F4"/>
<stop offset="1" stop-color="#0969EF"/>
</linearGradient>
<clipPath id="clip0_1180_480">
<rect width="18.1183" height="18.1183" fill="white" transform="translate(74.9404 74.9409)"/>
</clipPath>
</defs>
</svg>
