<svg width="20" height="20" viewBox="0 0 20 20" fill="none" xmlns="http://www.w3.org/2000/svg">
<g id="Maps and Flags" clip-path="url(#clip0_1180_485)">
<g id="Group">
<g id="Group_2">
<path id="Vector" d="M10.0001 0.940857C6.38194 0.940857 3.43835 3.88444 3.43835 7.50258C3.43835 11.9928 9.31049 18.5847 9.5605 18.8631C9.79533 19.1247 10.2053 19.1242 10.4397 18.8631C10.6897 18.5847 16.5619 11.9928 16.5619 7.50258C16.5618 3.88444 13.6183 0.940857 10.0001 0.940857ZM10.0001 17.5633C8.02384 15.2158 4.62001 10.5843 4.62001 7.50265C4.62001 4.53599 7.03349 2.12251 10.0001 2.12251C12.9667 2.12251 15.3802 4.53599 15.3802 7.50261C15.3802 10.5844 11.9769 15.215 10.0001 17.5633Z" fill="white"/>
</g>
</g>
<g id="Group_3">
<g id="Group_4">
<path id="Vector_2" d="M9.99959 4.20123C8.1792 4.20123 6.69824 5.68223 6.69824 7.50262C6.69824 9.32301 8.17924 10.804 9.99959 10.804C11.82 10.804 13.3009 9.32301 13.3009 7.50262C13.3009 5.68223 11.82 4.20123 9.99959 4.20123ZM9.99959 9.62235C8.83075 9.62235 7.87989 8.67146 7.87989 7.50262C7.87989 6.33378 8.83079 5.38289 9.99959 5.38289C11.1684 5.38289 12.1193 6.33378 12.1193 7.50262C12.1193 8.67146 11.1684 9.62235 9.99959 9.62235Z" fill="white"/>
</g>
</g>
</g>
<defs>
<clipPath id="clip0_1180_485">
<rect width="18.1183" height="18.1183" fill="white" transform="translate(0.94043 0.940857)"/>
</clipPath>
</defs>
</svg>
